<svg xmlns="http://www.w3.org/2000/svg" viewBox="0 0 375 374.999991" preserveAspectRatio="xMidYMid meet">
  <defs>
    <clipPath id="clip1">
      <path d="M 56.148438 37.5 L 153 37.5 L 153 134 L 56.148438 134 Z M 56.148438 37.5 " clip-rule="nonzero"/>
    </clipPath>
    <clipPath id="clip2">
      <path d="M 236 211 L 318.648438 211 L 318.648438 294 L 236 294 Z M 236 211 " clip-rule="nonzero"/>
    </clipPath>
  </defs>
  <g clip-path="url(#clip1)">
    <path fill="#ff751f" d="M 104.003906 133.882812 C 130.480469 133.882812 152.023438 112.339844 152.023438 85.859375 C 152.023438 59.382812 130.480469 37.839844 104.003906 37.839844 C 77.523438 37.839844 55.980469 59.382812 55.980469 85.859375 C 55.980469 112.339844 77.523438 133.882812 104.003906 133.882812 Z M 104.003906 51.089844 C 123.175781 51.089844 138.773438 66.6875 138.773438 85.859375 C 138.773438 105.03125 123.179688 120.632812 104.003906 120.632812 C 84.828125 120.632812 69.234375 105.035156 69.234375 85.859375 C 69.234375 66.691406 84.832031 51.089844 104.003906 51.089844 Z M 104.003906 51.089844 " fill-opacity="1" fill-rule="nonzero"/>
  </g>
  <g clip-path="url(#clip2)">
    <path fill="#ff751f" d="M 277.472656 211.199219 C 254.75 211.199219 236.261719 229.6875 236.261719 252.40625 C 236.261719 275.128906 254.75 293.613281 277.472656 293.613281 C 300.191406 293.613281 318.679688 275.128906 318.679688 252.40625 C 318.679688 229.6875 300.191406 211.199219 277.472656 211.199219 Z M 277.472656 280.367188 C 262.054688 280.367188 249.511719 267.824219 249.511719 252.410156 C 249.511719 236.992188 262.054688 224.453125 277.472656 224.453125 C 292.890625 224.453125 305.429688 236.992188 305.429688 252.410156 C 305.429688 267.820312 292.890625 280.367188 277.472656 280.367188 Z M 277.472656 280.367188 " fill-opacity="1" fill-rule="nonzero"/>
  </g>
  <path fill="#1800ad" d="M 230.164062 105.894531 C 242.414062 105.894531 252.386719 95.921875 252.386719 83.667969 C 252.386719 71.414062 242.414062 61.441406 230.164062 61.441406 C 217.910156 61.441406 207.9375 71.414062 207.9375 83.667969 C 207.9375 95.921875 217.90625 105.894531 230.164062 105.894531 Z M 230.164062 74.691406 C 235.113281 74.691406 239.136719 78.71875 239.136719 83.667969 C 239.136719 88.617188 235.113281 92.640625 230.164062 92.640625 C 225.214844 92.640625 221.1875 88.617188 221.1875 83.667969 C 221.1875 78.71875 225.214844 74.691406 230.164062 74.691406 Z M 230.164062 74.691406 " fill-opacity="1" fill-rule="nonzero"/>
  <path fill="#1800ad" d="M 114.105469 202.226562 C 114.105469 189.972656 104.132812 180.003906 91.878906 180.003906 C 79.625 180.003906 69.652344 189.972656 69.652344 202.226562 C 69.652344 214.480469 79.625 224.453125 91.878906 224.453125 C 104.132812 224.453125 114.105469 214.480469 114.105469 202.226562 Z M 82.90625 202.226562 C 82.90625 197.28125 86.929688 193.253906 91.878906 193.253906 C 96.828125 193.253906 100.851562 197.28125 100.851562 202.226562 C 100.851562 207.175781 96.828125 211.199219 91.878906 211.199219 C 86.929688 211.199219 82.90625 207.175781 82.90625 202.226562 Z M 82.90625 202.226562 " fill-opacity="1" fill-rule="nonzero"/>
  <path fill="#1800ad" d="M 104.003906 287.84375 C 91.75 287.84375 81.777344 297.816406 81.777344 310.070312 C 81.777344 322.324219 91.75 332.292969 104.003906 332.292969 C 116.257812 332.292969 126.230469 322.324219 126.230469 310.070312 C 126.230469 297.816406 116.257812 287.84375 104.003906 287.84375 Z M 104.003906 319.042969 C 99.054688 319.042969 95.03125 315.019531 95.03125 310.070312 C 95.03125 305.121094 99.054688 301.09375 104.003906 301.09375 C 108.953125 301.09375 112.976562 305.121094 112.976562 310.070312 C 112.976562 315.019531 108.953125 319.042969 104.003906 319.042969 Z M 104.003906 319.042969 " fill-opacity="1" fill-rule="nonzero"/>
  <path fill="#000000" d="M 242.539062 222.050781 C 244.875 219.230469 244.480469 215.058594 241.660156 212.726562 L 221.539062 196.0625 C 223.496094 192.078125 224.625 187.613281 224.625 182.882812 C 224.625 172.160156 218.957031 162.761719 210.480469 157.449219 L 224.277344 116.597656 C 225.449219 113.132812 223.585938 109.375 220.117188 108.203125 C 216.644531 107.03125 212.890625 108.890625 211.722656 112.359375 L 197.980469 153.0625 C 196.871094 152.9375 195.746094 152.859375 194.601562 152.859375 C 188.949219 152.859375 183.671875 154.460938 179.148438 157.191406 L 153.914062 126.226562 C 151.597656 123.390625 147.425781 122.964844 144.589844 125.273438 C 141.753906 127.585938 141.332031 131.761719 143.640625 134.597656 L 169.542969 166.382812 C 166.671875 170.722656 164.929688 175.847656 164.652344 181.359375 L 123.1875 190.507812 C 119.613281 191.292969 117.355469 194.832031 118.144531 198.402344 C 118.828125 201.496094 121.566406 203.601562 124.609375 203.601562 C 125.082031 203.601562 125.5625 203.550781 126.042969 203.445312 L 166.894531 194.433594 C 168.722656 198.792969 171.554688 202.625 175.089844 205.660156 L 119.339844 279.160156 C 117.125 282.078125 117.695312 286.234375 120.613281 288.445312 C 121.808594 289.351562 123.21875 289.792969 124.613281 289.792969 C 126.613281 289.792969 128.59375 288.890625 129.894531 287.171875 L 186.992188 211.898438 C 189.429688 212.535156 191.96875 212.910156 194.601562 212.910156 C 201.644531 212.910156 208.109375 210.457031 213.234375 206.386719 L 233.214844 222.929688 C 234.449219 223.957031 235.945312 224.453125 237.433594 224.453125 C 239.339844 223.632812 241.230469 223.632812 242.539062 222.050781 Z M 194.601562 199.65625 C 185.355469 199.65625 177.832031 192.132812 177.832031 182.882812 C 177.832031 173.632812 185.355469 166.113281 194.601562 166.113281 C 203.847656 166.113281 211.375 173.632812 211.375 182.882812 C 211.375 192.132812 203.847656 199.65625 194.601562 199.65625 Z M 194.601562 199.65625 " fill-opacity="1" fill-rule="nonzero"/>
</svg>